<svg width="30" height="22" viewBox="0 0 30 22" fill="none" xmlns="http://www.w3.org/2000/svg">
<path d="M27 0.5H3C1.35 0.5 0.015 1.85 0.015 3.5L0 18.5C0 20.15 1.35 21.5 3 21.5H27C28.65 21.5 30 20.15 30 18.5V3.5C30 1.85 28.65 0.5 27 0.5ZM13.5 5H16.5V8H13.5V5ZM13.5 9.5H16.5V12.5H13.5V9.5ZM9 5H12V8H9V5ZM9 9.5H12V12.5H9V9.5ZM7.5 12.5H4.5V9.5H7.5V12.5ZM7.5 8H4.5V5H7.5V8ZM21 18.5H9V15.5H21V18.5ZM21 12.5H18V9.5H21V12.5ZM21 8H18V5H21V8ZM25.5 12.5H22.5V9.5H25.5V12.5ZM25.5 8H22.5V5H25.5V8Z" fill="white"/>
</svg>
