<svg width="82" height="99" viewBox="0 0 82 99" fill="none" xmlns="http://www.w3.org/2000/svg">
<path d="M13.0215 98.7207H49.6914C57.8945 98.7207 61.9473 94.5703 61.9473 86.2696V79.2871H69.125C77.3281 79.2871 81.4297 75.1368 81.4297 66.8359V35.6836C81.4297 30.3613 80.3555 26.9922 77.2305 23.7695L58.9199 5.06844C55.9414 1.99224 52.377 0.869141 47.7383 0.869141H32.5039C24.3008 0.869141 20.248 5.01954 20.248 13.3203V20.3027H13.0215C4.8184 20.3027 0.765617 24.4531 0.765617 32.7539V86.2696C0.765617 94.6192 4.8184 98.7207 13.0215 98.7207ZM61.9473 56.1426C61.9473 50.7227 61.3613 48.4277 57.9922 44.9609L37.7285 24.2578C34.5547 20.9863 31.918 20.3027 27.2793 20.3027V13.418C27.2793 9.90234 29.1836 7.90044 32.8945 7.90044H48.5684V27.2363C48.5684 31.875 50.8633 34.1211 55.4531 34.1211H74.3496V66.7383C74.3496 70.2539 72.4453 72.2559 68.7832 72.2559H61.9473V56.1426ZM56.5762 27.8223C55.3555 27.8223 54.8672 27.334 54.8672 26.1133V9.16994L73.1289 27.8223H56.5762ZM13.3633 91.6895C9.7012 91.6895 7.7969 89.6875 7.7969 86.1719V32.8516C7.7969 29.3359 9.7012 27.334 13.4121 27.334H26.0098V49.0137C26.0098 54.1406 28.5977 56.6797 33.6758 56.6797H54.8672V86.1719C54.8672 89.6875 52.9629 91.6895 49.3008 91.6895H13.3633ZM34.5059 50.1367C33.1387 50.1367 32.5527 49.5508 32.5527 48.1836V28.6523L53.5488 50.1367H34.5059Z" fill="black"/>
</svg>
